HIERARCHY
ROOT Hips
{
  OFFSET 13.6774 106.653 -34.4427
  CHANNELS 6 Xposition Yposition Zposition Zrotation Xrotation Yrotation
  JOINT ToSpine
  {
    OFFSET -2.69724 7.43032 -0.144315
    CHANNELS 3 Zrotation Xrotation Yrotation
    JOINT Spine
    {
      OFFSET -0.0310711 10.7595 1.96963
      CHANNELS 3 Zrotation Xrotation Yrotation
      JOINT Spine1
      {
        OFFSET 19.9056 3.91189 0.764692
        CHANNELS 3 Zrotation Xrotation Yrotation
        JOINT Neck
        {
          OFFSET 25.9749 7.03908 -0.130764
          CHANNELS 3 Zrotation Xrotation Yrotation
          JOINT Head
          {
            OFFSET 9.52751 0.295786 -0.907742
            CHANNELS 3 Zrotation Xrotation Yrotation
            End Site
            {
              OFFSET 16.4037 0.713936 2.7358
            }
          }
        }
        JOINT LeftShoulder
        {
          OFFSET 17.7449 4.33886 11.7777
          CHANNELS 3 Zrotation Xrotation Yrotation
          JOINT LeftArm
          {
            OFFSET 0.911315 1.27913 9.80584
            CHANNELS 3 Zrotation Xrotation Yrotation
            JOINT LeftForeArm
            {
              OFFSET 28.6126 1.18197 -3.53199
              CHANNELS 3 Zrotation Xrotation Yrotation
              JOINT LeftHand
              {
                OFFSET 27.5088 0.0218783 0.327423
                CHANNELS 3 Zrotation Xrotation Yrotation
                End Site
                {
                  OFFSET 18.6038 -0.000155887 0.382096
                }
              }
            }
          }
        }
        JOINT RightShoulder
        {
          OFFSET 17.1009 2.89543 -12.2328
          CHANNELS 3 Zrotation Xrotation Yrotation
          JOINT RightArm
          {
            OFFSET 1.4228 0.178766 -10.211
            CHANNELS 3 Zrotation Xrotation Yrotation
            JOINT RightForeArm
            {
              OFFSET 28.733 1.87905 2.64907
              CHANNELS 3 Zrotation Xrotation Yrotation
              JOINT RightHand
              {
                OFFSET 27.4588 0.290562 -0.101845
                CHANNELS 3 Zrotation Xrotation Yrotation
                End Site
                {
                  OFFSET 17.8396 -0.255518 -0.000602873
                }
              }
            }
          }
        }
      }
    }
  }
  JOINT LeftUpLeg
  {
    OFFSET -5.61296 -2.22332 -10.2353
    CHANNELS 3 Zrotation Xrotation Yrotation
    JOINT LeftLeg
    {
      OFFSET 2.56703 -44.7417 -7.93097
      CHANNELS 3 Zrotation Xrotation Yrotation
      JOINT LeftFoot
      {
        OFFSET 3.16933 -46.5642 -3.96578
        CHANNELS 3 Zrotation Xrotation Yrotation
        JOINT LeftToeBase
        {
          OFFSET 0.346054 -6.02161 12.8035
          CHANNELS 3 Zrotation Xrotation Yrotation
          End Site
          {
            OFFSET 0.134235 -1.35082 5.13018
          }
        }
      }
    }
  }
  JOINT RightUpLeg
  {
    OFFSET -5.7928 -1.72406 10.6446
    CHANNELS 3 Zrotation Xrotation Yrotation
    JOINT RightLeg
    {
      OFFSET -2.57161 -44.7178 -7.85259
      CHANNELS 3 Zrotation Xrotation Yrotation
      JOINT RightFoot
      {
        OFFSET -3.10148 -46.5936 -4.03391
        CHANNELS 3 Zrotation Xrotation Yrotation
        JOINT RightToeBase
        {
          OFFSET -0.0828122 -6.13587 12.8035
          CHANNELS 3 Zrotation Xrotation Yrotation
          End Site
          {
            OFFSET -0.131328 -1.35082 5.13018
          }
        }
      }
    }
  }
}
MOTION
Frames: 19
Frame Time: 0.03333333333333333
0.0000 93.1000 0.0000 70.8579 -21.1980 -12.3404 -71.0487 -0.2692 87.8419 91.8309 69.8434 -8.0825 -0.9323 17.7919 6.7369 -137.6681 32.0714 173.5205 -172.5521 72.2483 -164.5355 -0.0712 -11.9718 -21.7402 -73.3564 36.9329 -141.3968 7.8920 -2.4288 -106.1374 -0.0865 0.3169 0.0768 -1.3560 5.2538 31.1894 -126.7174 -18.8166 90.2834 9.4873 5.4493 119.2003 0.1173 -0.1803 -0.0030 -48.2008 15.4309 95.7291 -2.6449 35.4109 -8.0261 -5.0166 -6.3422 -0.9171 3.8142 -11.0786 8.2586 -36.3560 -12.5759 86.1631 2.6330 54.0159 2.1911 -4.6891 -20.6281 1.0560 2.2884 -0.3371 -14.5089 
0.0000 93.1000 0.0000 71.0120 -20.8215 -12.1953 -70.9470 -0.1756 87.8688 92.7796 70.0354 -8.7956 -1.4466 17.4857 6.8412 -137.1431 32.3078 172.0557 -172.9524 72.0686 -165.1952 -0.0466 -12.1602 -21.9405 -73.5122 37.1601 -141.8672 7.1117 -2.3309 -105.8096 0.2911 0.3301 -0.1164 -1.2714 5.2798 29.9733 -128.7422 -18.3258 89.5687 10.9017 5.6265 117.0126 0.2715 -0.1927 0.0891 -48.3090 14.6829 94.1276 -2.4742 36.1539 -12.9347 -5.1099 -7.3022 -1.0851 3.4545 -11.3091 12.1630 -36.4988 -13.3492 85.0593 3.0531 53.4292 1.0614 -3.6448 -20.4316 1.1901 2.3005 -0.8862 -15.6063 
0.0000 93.1000 0.0000 71.2201 -20.2679 -12.1867 -70.9231 0.0329 87.8083 91.7253 70.1446 -7.4995 -1.1404 17.7494 6.7491 -136.0961 32.5563 170.6303 -174.5858 72.8614 -163.4061 0.1652 -12.0374 -21.4278 -74.0254 36.7658 -142.1781 6.2960 -1.6157 -106.0472 0.2671 0.3147 0.0512 -1.1968 5.2141 29.4796 -131.2540 -17.9159 89.3815 10.7375 5.5696 114.7460 0.1669 -0.1563 0.1757 -48.2758 15.2368 93.2377 -3.5667 37.3238 -14.2927 -4.1310 -9.0291 -1.2760 3.3250 -12.5523 12.8515 -37.0042 -13.8984 84.7783 2.4547 53.0382 1.8428 -3.8175 -19.7863 1.2852 1.4491 -1.6597 -14.6579 
0.0000 93.1000 0.0000 71.1346 -20.7311 -10.6104 -70.9695 -0.4874 87.6762 92.8113 70.1877 -7.5663 -1.7207 17.4714 6.0451 -133.2808 32.2729 167.0498 -175.1806 73.5913 -162.5850 -0.0107 -11.8245 -20.5619 -74.2637 36.8638 -144.1580 6.2743 -1.7295 -104.4385 -0.5537 0.1144 0.5109 -1.7997 5.2764 28.5071 -133.0706 -17.6239 89.8544 12.5127 4.9472 111.9889 -0.3522 0.0826 -0.3004 -49.0409 16.7201 93.5867 -2.7520 38.3536 -11.2588 -2.8436 -8.7480 -0.5221 3.2699 -11.6720 13.9238 -36.8650 -13.2531 85.5080 2.4427 51.8409 1.5960 -3.1772 -19.5845 0.0792 0.8609 -1.5890 -14.7261 
0.0000 93.1000 0.0000 71.3696 -22.1953 -11.8439 -71.2543 0.1138 87.7736 92.0665 70.2068 -6.1795 -1.4227 18.0863 6.4414 -134.3852 32.5058 168.4927 -172.7933 73.2890 -164.8750 0.3649 -11.2133 -19.9825 -74.4440 37.3579 -144.2307 7.1209 -2.3936 -103.9014 -0.4066 0.3137 0.0396 -1.0097 5.1047 26.7557 -135.0637 -18.0003 91.3600 15.5907 4.4811 108.2701 0.3477 -0.1669 -0.0602 -49.3866 18.8393 92.7742 -3.4405 38.8496 -4.9022 -2.8366 -5.9996 -1.0884 2.6557 -9.4256 12.6409 -37.0260 -13.3567 86.4304 3.0545 51.1828 2.1210 -2.2331 -18.6884 0.7344 2.2752 -2.4578 -15.3554 
0.0000 93.1000 0.0000 70.9706 -22.9132 -10.9299 -71.2447 -0.3793 87.7073 89.2026 70.1734 -3.4720 -1.0076 17.9894 6.9603 -133.9550 32.0914 169.2440 -173.6938 73.3491 -164.5022 0.0321 -11.2534 -19.5948 -74.6436 36.8541 -145.2189 8.2667 -2.8165 -103.2546 -0.5606 0.5198 0.1249 -1.1035 5.0125 25.3059 -135.5146 -18.1578 91.9419 17.2470 4.0818 105.1158 -0.0198 -0.3983 -0.2863 -51.1396 19.3807 93.0397 -2.4737 38.3078 -0.2957 -4.0115 -3.4405 -0.5212 2.4459 -7.5740 7.5501 -38.1297 -12.9451 87.7936 2.2482 49.1778 0.4633 -2.2150 -16.7046 0.4116 1.8560 -2.9341 -12.8835 
0.0000 93.1000 0.0000 69.9734 -22.6138 -11.0610 -71.2936 -0.4986 87.7550 87.7979 69.8182 -1.4451 -0.7639 17.8365 7.0879 -133.2415 32.2385 168.4857 -171.6691 72.9916 -166.2106 -0.2522 -11.0623 -19.1706 -75.9246 35.9716 -145.9374 9.1377 -2.7135 -102.3285 -0.5368 0.8050 0.2534 -1.1476 5.0752 25.2010 -136.1647 -17.9689 92.9975 17.4746 3.6871 102.0825 -0.0750 -0.6813 -0.2197 -52.2453 19.5959 92.7753 -2.3923 37.0656 -3.0502 -5.2029 -1.8342 -0.4723 4.1631 -10.9906 6.6234 -38.1301 -13.1812 88.3462 1.4821 46.9052 1.2028 -1.6769 -14.9457 0.4179 1.8014 -3.6288 -10.8724 
0.0000 93.1000 0.0000 70.2305 -23.8326 -10.8438 -71.2474 -0.0993 87.7169 85.0853 69.9547 1.2933 -0.1956 17.9570 6.7266 -132.9985 32.0370 167.8043 -171.7917 72.9991 -166.3512 -0.0300 -11.2314 -18.7126 -75.9965 36.1255 -146.0118 10.5173 -2.9775 -102.0714 -0.3669 0.6610 0.4076 -0.8891 5.1063 23.8375 -137.1714 -17.8564 93.3586 18.9452 3.2622 100.2328 0.0288 -0.4973 0.0478 -52.6076 18.6313 92.8849 -2.7539 36.2975 -5.5853 -5.4172 -2.6937 -0.6835 4.9692 -13.7453 6.2854 -39.5887 -13.7768 88.8945 2.1359 44.3325 -1.1079 -1.6350 -12.9396 0.6823 1.4024 -3.5483 -7.8545 
0.0000 93.1000 0.0000 69.9443 -24.7591 -12.0642 -71.3275 -0.5411 87.6661 84.9746 70.2471 2.2464 -0.0674 18.0941 6.9046 -130.8364 31.7068 165.6522 -168.5455 72.9313 -168.7576 -0.4236 -11.2095 -18.0689 -76.0877 35.0039 -147.0070 11.4534 -3.3081 -101.2636 -0.7882 0.9327 0.5793 -1.0332 4.9715 23.4570 -137.6919 -17.6157 94.1677 18.7177 3.1108 98.4064 -0.0736 -0.7786 0.1412 -54.0703 18.0842 94.5291 -2.5336 35.5422 -5.5296 -5.2826 -4.1929 -0.8372 5.3034 -14.4928 5.9292 -39.2535 -14.2809 89.5611 0.7398 41.0252 -0.9603 -1.6577 -9.1330 0.2211 0.8613 -5.4834 -4.9866 
0.0000 93.1000 0.0000 69.2155 -25.9586 -12.5029 -71.2141 -0.2157 87.6344 85.1047 70.6887 2.5749 0.2639 18.5695 6.6278 -130.5473 31.6953 163.6562 -165.8259 73.2183 -171.1333 -0.1692 -11.6994 -18.2297 -75.5041 35.0324 -147.9123 12.0719 -2.9638 -100.1438 -0.1774 0.6070 0.2700 -1.0343 5.1082 23.9025 -138.2892 -17.5661 94.3050 18.6095 1.7943 97.2665 0.1553 -0.4361 0.1330 -53.8461 17.0827 98.0106 -2.8746 34.6634 -5.8449 -4.9058 -6.1501 -0.9391 5.2827 -13.9672 7.1137 -40.0695 -15.2117 90.3612 0.2094 37.4660 -0.9196 -3.2805 -4.6151 0.5038 0.7875 -7.7669 -3.6320 
0.0000 93.1000 0.0000 68.9039 -26.1537 -12.2105 -71.1150 -0.4151 87.7426 83.4702 70.5710 3.1269 0.4445 18.8672 6.7583 -131.7254 31.9964 165.7310 -167.5937 73.1432 -170.4698 -0.1472 -12.0691 -18.3717 -75.5355 34.8247 -147.9027 12.9455 -2.9782 -100.2493 -0.1580 0.1468 0.0486 -1.4478 5.5132 23.3913 -138.9759 -18.2530 94.0937 18.9879 1.6486 97.0191 -0.2198 0.0899 -0.3363 -54.4740 14.9345 100.4081 -3.1325 33.7944 -5.2040 -4.1454 -7.6205 -0.5016 4.5852 -12.4304 6.6284 -41.0434 -16.8502 88.5045 -1.5746 33.3925 2.7525 -3.7761 -0.7991 -0.2292 0.5862 -8.3175 -3.3045 
0.0000 93.1000 0.0000 69.0931 -26.9324 -12.5081 -71.0987 0.3629 87.9047 84.9964 71.0757 1.5657 0.1079 18.6072 7.2858 -131.1395 32.1008 163.4261 -164.1673 73.8939 -172.2678 0.7176 -12.0770 -18.2110 -74.9156 34.8973 -147.8291 13.2156 -2.6290 -100.2859 0.3255 -0.8011 -0.0763 -1.6283 5.3934 24.2761 -139.7596 -18.5467 94.3160 18.0198 2.2079 97.9410 -0.4263 1.2470 -0.6595 -53.6875 14.0905 102.1408 -2.6293 35.4780 -6.6449 -4.8629 -9.1326 0.1139 3.7817 -10.7039 7.0446 -41.3576 -18.7813 85.1807 -1.6516 29.9825 5.6300 -3.1764 1.9561 -0.3604 0.3346 -7.3180 -2.7482 
0.0000 93.1000 0.0000 68.9272 -27.1682 -12.3932 -70.9287 0.3259 87.8779 86.0304 71.1578 -0.2425 -0.1744 18.4009 8.2376 -130.2929 32.0413 162.5999 -166.1462 73.8579 -172.2521 0.5515 -12.2295 -17.9368 -75.0967 34.0360 -148.0195 13.5776 -3.1674 -100.8180 0.5670 -0.5249 -0.4269 -1.4218 5.0839 24.9453 -140.2282 -19.0427 93.7838 17.0126 3.2064 99.0740 -0.0638 0.8988 -0.4848 -53.5379 13.5919 102.9750 -2.3746 36.4301 -9.2912 -4.4717 -10.7973 -0.5481 4.2696 -12.3871 8.8088 -40.8014 -20.2664 82.2916 -1.5817 28.3366 3.5954 -3.5513 2.8184 0.0662 0.2847 -5.0290 -1.1377 
0.0000 93.1000 0.0000 69.2093 -28.2080 -12.4883 -70.9663 -0.1008 87.7931 85.8664 71.1165 -1.0418 -0.0248 18.8833 8.1518 -130.4394 32.1779 164.3027 -164.4444 73.7113 -172.2943 0.2088 -12.1364 -18.3735 -75.3024 34.2353 -148.1714 13.5168 -3.3446 -101.2229 0.6886 -0.1468 -0.1799 -1.4974 5.3943 25.8651 -139.9479 -18.4843 93.2357 17.1207 3.1705 100.1203 -0.1334 0.4611 -0.3256 -53.0220 13.8026 102.6653 -2.9439 36.8660 -8.5414 -4.2249 -12.5310 -0.8601 3.9217 -11.1354 8.6493 -40.8402 -19.3447 80.8806 0.1307 30.3488 2.5167 -2.1866 2.6201 -0.2911 0.0371 -5.0329 -0.2748 
0.0000 93.1000 0.0000 69.2528 -29.2753 -12.0453 -71.1069 -0.4258 87.7769 87.3099 71.5340 -1.8148 -0.2187 19.0293 7.6450 -131.1725 32.3313 163.4570 -167.2756 73.6622 -170.8238 0.0556 -11.8816 -18.6264 -74.7293 34.3057 -147.3146 13.9667 -3.6774 -101.0682 0.2451 0.0824 0.0019 -1.4635 5.6249 26.0606 -139.1682 -18.5884 92.5280 17.4317 3.3436 101.9372 -0.2782 0.1557 -0.2353 -51.7448 12.5901 101.8886 -3.0268 37.8105 -7.0909 -3.9210 -13.7644 -1.2068 3.5516 -10.2013 9.9078 -41.2858 -18.0040 80.8026 1.3998 32.6170 1.5379 -1.3775 0.6087 -0.3295 -0.0826 -6.6912 2.6026 
0.0000 93.1000 0.0000 69.0728 -29.5898 -11.7736 -71.0784 -0.1137 87.7993 88.0338 71.7434 -3.3303 -0.4360 19.0290 8.7672 -130.9676 32.0721 164.0331 -166.0156 74.1079 -170.2512 0.2801 -11.7452 -18.8583 -73.4131 33.9295 -145.8707 15.2528 -4.2581 -101.8360 0.2008 -0.0479 -0.3693 -1.1652 5.5496 27.0077 -138.4350 -18.2309 91.7816 16.4876 3.6074 102.9894 -0.0085 0.2134 -0.4965 -51.9555 11.9401 101.4114 -2.6279 38.5622 -5.7371 -2.7955 -14.0709 -1.7602 3.1482 -9.8628 10.1764 -40.4213 -16.9892 80.8031 1.0365 35.9575 -0.6781 -1.8430 -1.1622 0.1873 0.3257 -8.8228 2.5745 
0.0000 93.1000 0.0000 70.1217 -30.0686 -11.3350 -71.0789 0.3488 87.8083 88.8964 71.7442 -4.6106 0.0862 18.7678 8.6090 -130.3457 32.2703 162.9402 -166.6728 73.9765 -169.0930 0.8038 -11.9374 -19.0181 -72.9203 34.6836 -145.5184 15.6327 -3.6495 -102.1440 0.2582 -0.7329 -0.4452 -1.4435 5.4600 28.0070 -137.0252 -16.9387 91.2827 16.5780 4.0917 104.8816 -0.3255 1.0407 -0.4719 -51.9653 12.0663 101.3483 -2.6797 39.1101 -6.2585 -2.4753 -13.6558 -1.1515 3.4056 -10.3582 11.1983 -41.4708 -17.2742 79.1127 1.4887 36.7761 -0.1796 -1.7070 -0.3376 -0.1681 0.0677 -9.9338 2.4410 
0.0000 93.1000 0.0000 70.8432 -29.3804 -11.3855 -71.1173 0.1270 87.8196 89.0244 71.4927 -4.8751 0.0504 18.6693 8.7240 -130.0090 32.2292 162.8881 -170.0165 74.0372 -166.8082 0.5624 -12.2742 -18.7684 -72.9279 34.9091 -144.3858 16.1965 -3.4953 -102.9309 -0.1033 -0.5832 -0.1405 -1.6122 5.5610 29.1814 -136.8989 -15.6551 90.0301 15.7377 5.0151 106.2024 -0.2533 0.8506 -0.3899 -52.0168 11.6271 101.1660 -3.1029 39.0968 -6.1927 -2.5128 -14.4765 -1.1502 3.1899 -9.8859 10.8889 -42.2167 -18.1120 77.4029 0.9866 35.3250 0.0666 -1.5456 0.4817 -0.4880 -0.4988 -8.3408 0.3756 
0.0000 93.1000 0.0000 70.9606 -29.1897 -10.3086 -71.0523 0.0832 87.7278 87.0124 71.9371 -2.8270 0.5503 18.8659 8.9503 -129.1871 32.1924 162.9727 -168.2877 73.9520 -167.7692 0.4150 -12.1159 -19.0054 -71.2907 34.8802 -144.7401 15.9989 -3.7867 -102.8641 -0.1944 -0.3705 -0.1444 -1.4740 5.4443 30.1366 -136.0509 -14.1620 89.0432 14.6916 4.9809 106.9314 -0.2730 0.5606 -0.6044 -52.1155 11.9457 100.3731 -2.8673 39.8847 -6.0404 -2.0909 -14.3909 -1.4510 2.9382 -9.4473 10.7824 -43.0231 -17.8697 76.8968 0.9470 33.9354 -0.1750 -1.5397 0.2141 -0.2330 -0.1050 -8.2193 1.1736 
